<!-- Generated by IcoMoon.io -->
<svg version="1.1" xmlns="http://www.w3.org/2000/svg" width="32" height="32" viewBox="0 0 32 32">
<title>room_corridor</title>
<path d="M17.012 6.269v23.731h2.738c0.563 0 1.012 0.45 1.012 1s-0.456 1-1.012 1h-7.5c-0.563 0-1.012-0.45-1.012-1s0.456-1 1.012-1h2.738v-23.731h-0.931c-2.856 0-5.181-2.294-5.181-5.112 0-0.55 0.456-1 1.012-1s1.012 0.45 1.012 1c0 1.712 1.412 3.112 3.15 3.112h0.931v-3.269c0-0.55 0.456-1 1.012-1 0.563 0 1.012 0.45 1.012 1v3.269h0.931c1.738 0 3.15-1.394 3.15-3.112 0-0.55 0.456-1 1.012-1 0.563 0 1.012 0.45 1.012 1 0 2.819-2.325 5.112-5.181 5.112h-0.919z"></path>
</svg>
